<?xml version="1.0" encoding="UTF-8"?>
<svg xmlns="http://www.w3.org/2000/svg" version="1.1" xmlns:cc="http://creativecommons.org/ns#" xmlns:dc="http://purl.org/dc/elements/1.1/" xmlns:inkscape="http://www.inkscape.org/namespaces/inkscape" xmlns:rdf="http://www.w3.org/1999/02/22-rdf-syntax-ns#" xmlns:sodipodi="http://sodipodi.sourceforge.net/DTD/sodipodi-0.dtd" xmlns:svg="http://www.w3.org/2000/svg" viewBox="0 0 500 131">
  <defs>
    <style>
      .cls-1 {
        fill: #2e5989;
      }

      .cls-1, .cls-2 {
        fill-rule: evenodd;
      }

      .cls-1, .cls-2, .cls-3 {
        stroke-width: 0px;
      }

      .cls-4 {
        fill: #000;
        font-family: Haettenschweiler, Haettenschweiler;
        font-size: 132.4px;
      }

      .cls-2 {
        fill: #3c70ba;
      }

      .cls-3 {
        fill: #fff;
      }
    </style>
  </defs>
  <g id="svg2" inkscape:version="0.91 r13725" sodipodi:docname="banner.svg">
    <sodipodi:namedview id="namedview27" bordercolor="#666666" borderopacity="1" gridtolerance="10" guidetolerance="10" inkscape:current-layer="svg2" inkscape:cx="109.73282" inkscape:cy="81.875" inkscape:pageopacity="0" inkscape:pageshadow="2" inkscape:window-height="777" inkscape:window-maximized="1" inkscape:window-width="1202" inkscape:window-x="70" inkscape:window-y="-8" inkscape:zoom="0.6288" objecttolerance="10" pagecolor="#ffffff" showgrid="false"/>
    <text class="cls-4" transform="translate(137.1 112.2) scale(1.2 1)"><tspan x="0" y="0">NDLoad</tspan></text>
    <g>
      <path class="cls-2" d="M68.7,4.7h0c33,0,60,27,60,60h0c0,33-27,60-60,60h0c-33,0-60-27-60-60h0C8.7,31.7,35.7,4.7,68.7,4.7h0Z"/>
      <path class="cls-1" d="M128.1,73.3c-3.2,21.9-18.3,40-38.5,47.6l-22.4-19.5-1.3-12.1-26.1-24.8,6-21.3,42.3-4.7,39.9,34.9h0Z"/>
      <path class="cls-3" d="M76.2,69h16.3c5.2,0,9.5-4.3,9.5-9.5s-.8-4.3-2-5.9c-1.3-1.6-3.1-2.9-5.2-3.4-.4,0-.7-.4-.7-.8-.1-3.8-1.8-7.2-4.3-9.7-2.5-2.5-6-4-9.8-4h-.1c-.3,0-.7-.2-.8-.5-2.4-4.7-7.3-7.7-12.6-7.7s-11.6,4-13.5,9.7h0c-.1.4-.5.6-.9.6-9-.6-16.5,6.5-16.5,15.5s7,15.5,15.5,15.5h7.4v-23.1c0-.5.4-.9.9-.9h16.1c.5,0,.9.4.9.9v23.1h0Z"/>
      <path class="cls-3" d="M60.1,69.9v10.6c0,.5-.4.9-.9.9h-11.7l19.8,20,19.8-20h-11.7c-.5,0-.9-.4-.9-.9v-33.7h-14.4v23.1h0Z"/>
    </g>
  </g>
</svg>