<?xml version="1.0" encoding="UTF-8"?>
<svg xmlns="http://www.w3.org/2000/svg" version="1.1" xmlns:cc="http://creativecommons.org/ns#" xmlns:dc="http://purl.org/dc/elements/1.1/" xmlns:inkscape="http://www.inkscape.org/namespaces/inkscape" xmlns:rdf="http://www.w3.org/1999/02/22-rdf-syntax-ns#" xmlns:sodipodi="http://sodipodi.sourceforge.net/DTD/sodipodi-0.dtd" xmlns:svg="http://www.w3.org/2000/svg" viewBox="0 0 1000 998">
  <defs>
    <style>
      .cls-1 {
        fill: #2e5989;
      }

      .cls-1, .cls-2 {
        fill-rule: evenodd;
      }

      .cls-1, .cls-2, .cls-3 {
        stroke-width: 0px;
      }

      .cls-2 {
        fill: #3c70ba;
      }

      .cls-3 {
        fill: #fff;
      }
    </style>
  </defs>
  <g id="svg2" inkscape:version="0.91 r13725" sodipodi:docname="logo.svg">
    <sodipodi:namedview id="namedview15" bordercolor="#666666" borderopacity="1" gridtolerance="10" guidetolerance="10" inkscape:current-layer="svg2" inkscape:cx="-48.967161" inkscape:cy="623.75" inkscape:pageopacity="0" inkscape:pageshadow="2" inkscape:window-height="768" inkscape:window-maximized="0" inkscape:window-width="616" inkscape:window-x="655" inkscape:window-y="0" inkscape:zoom="0.18917836" objecttolerance="10" pagecolor="#ffffff" showgrid="false"/>
    <g>
      <path class="cls-2" d="M499.5,12.6h0c267.3,0,486,218.7,486,486h0c0,267.3-218.7,486-486,486h0c-267.3,0-486-218.7-486-486h0C13.5,231.3,232.2,12.6,499.5,12.6h0Z"/>
      <path class="cls-1" d="M980.4,568.5c-25.8,177.1-148.1,324-311.3,385.3l-181-158.1-10.5-98.3-211.1-200.7,48.8-172.2,342-38.2,323,282.2h0Z"/>
      <path class="cls-3" d="M560.5,533.6h131.7c42.4,0,77.1-34.7,77.1-77.1s-6.2-34.5-16.5-47.6c-10.5-13.4-25.4-23.2-42.3-27.3-3.2-.6-5.6-3.3-5.7-6.7-1.2-30.7-14.4-58.4-35.2-78.3-20.6-19.8-48.7-32-79.6-32h-1.2c-2.7.2-5.5-1.2-6.8-3.8-19.6-38-58.7-62.3-102.1-62.3s-93.6,32.1-109.1,78.8h0c-1,3-3.9,5-7.2,4.8-72.6-4.6-133.9,53-133.9,125.6s56.4,125.9,125.9,125.9h60.1v-187.2c0-3.9,3.2-7.1,7.1-7.1h130.7c3.9,0,7.1,3.2,7.1,7.1v187.2h0Z"/>
      <path class="cls-3" d="M429.8,540.6v85.9c0,3.9-3.2,7.1-7.1,7.1h-95.1l160.5,162.1,160.5-162.1h-95.1c-3.9,0-7.1-3.2-7.1-7.1v-273h-116.6v187.2h0Z"/>
    </g>
  </g>
</svg>